<svg xmlns="http://www.w3.org/2000/svg" viewBox="0 0 24 24">
    <symbol viewBox="0 0 24 24" id="instagram">
        <path fill="currentColor" fill-rule="evenodd"
            d="M7.465 1.066C8.638 1.012 9.012 1 12 1c2.988 0 3.362.013 4.534.066c1.172.053 1.972.24 2.672.511c.733.277 1.398.71 1.948 1.27c.56.549.992 1.213 1.268 1.947c.272.7.458 1.5.512 2.67C22.988 8.639 23 9.013 23 12c0 2.988-.013 3.362-.066 4.535c-.053 1.17-.24 1.97-.512 2.67a5.396 5.396 0 0 1-1.268 1.949c-.55.56-1.215.992-1.948 1.268c-.7.272-1.5.458-2.67.512c-1.174.054-1.548.066-4.536.066c-2.988 0-3.362-.013-4.535-.066c-1.17-.053-1.97-.24-2.67-.512a5.397 5.397 0 0 1-1.949-1.268a5.392 5.392 0 0 1-1.269-1.948c-.271-.7-.457-1.5-.511-2.67C1.012 15.361 1 14.987 1 12c0-2.988.013-3.362.066-4.534c.053-1.172.24-1.972.511-2.672a5.396 5.396 0 0 1 1.27-1.948a5.392 5.392 0 0 1 1.947-1.269c.7-.271 1.5-.457 2.67-.511m8.98 1.98c-1.16-.053-1.508-.064-4.445-.064c-2.937 0-3.285.011-4.445.064c-1.073.049-1.655.228-2.043.379c-.513.2-.88.437-1.265.822a3.412 3.412 0 0 0-.822 1.265c-.151.388-.33.97-.379 2.043c-.053 1.16-.064 1.508-.064 4.445c0 2.937.011 3.285.064 4.445c.049 1.073.228 1.655.379 2.043c.176.477.457.91.822 1.265c.355.365.788.646 1.265.822c.388.151.97.33 2.043.379c1.16.053 1.507.064 4.445.064c2.938 0 3.285-.011 4.445-.064c1.073-.049 1.655-.228 2.043-.379c.513-.2.88-.437 1.265-.822c.365-.355.646-.788.822-1.265c.151-.388.33-.97.379-2.043c.053-1.16.064-1.508.064-4.445c0-2.937-.011-3.285-.064-4.445c-.049-1.073-.228-1.655-.379-2.043c-.2-.513-.437-.88-.822-1.265a3.413 3.413 0 0 0-1.265-.822c-.388-.151-.97-.33-2.043-.379m-5.85 12.345a3.669 3.669 0 0 0 4-5.986a3.67 3.67 0 1 0-4 5.986M8.002 8.002a5.654 5.654 0 1 1 7.996 7.996a5.654 5.654 0 0 1-7.996-7.996m10.906-.814a1.337 1.337 0 1 0-1.89-1.89a1.337 1.337 0 0 0 1.89 1.89"
            clip-rule="evenodd"></path>
    </symbol>

    <symbol viewBox="0 0 24 24" id="telegram">
        <path fill="currentColor"
            d="m20.665 3.717l-17.73 6.837c-1.21.486-1.203 1.161-.222 1.462l4.552 1.42l10.532-6.645c.498-.303.953-.14.579.192l-8.533 7.701h-.002l.002.001l-.314 4.692c.46 0 .663-.211.921-.46l2.211-2.15l4.599 3.397c.848.467 1.457.227 1.668-.785l3.019-14.228c.309-1.239-.473-1.8-1.282-1.434"></path>
    </symbol>

    <symbol viewBox="0 0 24 24" id="youtube">
        <path fill="currentColor"
            d="M23.5 6.507a2.786 2.786 0 0 0-.766-1.27a3.05 3.05 0 0 0-1.338-.742C19.518 4 11.994 4 11.994 4a76.624 76.624 0 0 0-9.39.47a3.16 3.16 0 0 0-1.338.76c-.37.356-.638.795-.778 1.276A29.09 29.09 0 0 0 0 12c-.012 1.841.151 3.68.488 5.494c.137.479.404.916.775 1.269c.371.353.833.608 1.341.743c1.903.494 9.39.494 9.39.494a76.8 76.8 0 0 0 9.402-.47a3.05 3.05 0 0 0 1.338-.742a2.78 2.78 0 0 0 .765-1.27A28.38 28.38 0 0 0 24 12.023a26.579 26.579 0 0 0-.5-5.517M9.602 15.424V8.577l6.26 3.424z"></path>
        <clipPath id="akarIconsYoutubeFill0">
            <path fill="currentColor" d="M0 0h24v24H0z"></path>
        </clipPath>
    </symbol>
</svg>